<?xml version="1.0" encoding="UTF-8"?>
<svg version="1.1" xmlns="http://www.w3.org/2000/svg" width="320" height="320">
<path d="M0 0 C105.6 0 211.2 0 320 0 C320 105.6 320 211.2 320 320 C214.4 320 108.8 320 0 320 C0 214.4 0 108.8 0 0 Z " fill="transparent" transform="translate(0,0)"/>
<path d="M0 0 C5.40831646 0.58627608 9.70832306 2.46152811 14.578125 4.7265625 C15.41058243 5.10549652 16.24303986 5.48443054 17.10072327 5.87484741 C21.7097465 7.97655241 26.30135906 10.11495335 30.89135742 12.2578125 C39.87751706 16.43249302 48.78919759 20.4128408 58.16015625 23.6484375 C79.27632096 31.0980754 79.27632096 31.0980754 83.80371094 37.58398438 C86.4504093 44.07453749 86.55113073 50.75838648 86.74755859 57.68701172 C87.07748728 65.37271286 88.68982661 72.95019522 90.01617432 80.51266479 C90.81753841 85.15005275 91.55220758 89.79793152 92.29296875 94.4453125 C93.33379507 100.92347309 94.39309176 107.39799113 95.48828125 113.8671875 C95.60199066 114.53907608 95.71570007 115.21096466 95.83285522 115.9032135 C96.15937177 117.83131437 96.48593525 119.75940729 96.8125 121.6875 C98.21754644 130.0096559 99.44800367 138.29503207 100.40625 146.6796875 C101.50054957 155.25882517 103.22601935 163.7610574 104.78125 172.265625 C104.98363281 173.38904297 105.18601562 174.51246094 105.39453125 175.66992188 C105.7957672 177.87671961 106.2096894 180.08125116 106.63671875 182.28320312 C106.92482422 183.8368457 106.92482422 183.8368457 107.21875 185.421875 C107.39341797 186.3303418 107.56808594 187.23880859 107.74804688 188.17480469 C108.29288455 194.28416664 106.69203494 199.30335961 104.32421875 204.87109375 C104.0469696 205.53004639 103.76972046 206.18899902 103.48406982 206.86791992 C102.55942641 209.06105674 101.62343076 211.24915911 100.6875 213.4375 C100.02719308 214.99775482 99.3677927 216.55839356 98.70922852 218.11938477 C97.64448095 220.64260413 96.57897906 223.16548395 95.51048279 225.68711853 C92.56417676 232.64308502 89.65880045 239.61553636 86.765625 246.59375 C86.32342117 247.65948746 85.88121735 248.72522491 85.4256134 249.82325745 C83.66465035 254.06735969 81.90375706 258.31148783 80.14584351 262.55685425 C78.9108819 265.5376267 77.67257245 268.51698919 76.43359375 271.49609375 C76.07465027 272.36476074 75.71570679 273.23342773 75.34588623 274.12841797 C72.41207949 281.17062837 69.23021812 288.08934208 66 295 C56.99242802 295.26453769 47.98476149 295.52552489 38.97696495 295.78230286 C34.79172198 295.90171293 30.6065176 296.02222681 26.42138672 296.14550781 C24.79004044 296.19340639 23.15869279 296.24125821 21.52734375 296.2890625 C20.32479856 296.32435672 20.32479856 296.32435672 19.09795952 296.36036396 C12.83275766 296.54162744 6.56706743 296.69028763 0.30081367 296.82991314 C-4.14208669 296.93503533 -8.57390519 297.11855813 -13.01220703 297.35473633 C-14.9820812 297.43089422 -16.95196922 297.50669536 -18.921875 297.58203125 C-19.77214264 297.64789429 -20.62241028 297.71375732 -21.4984436 297.78161621 C-25.13685301 297.88246975 -27.14170869 297.75818231 -29.93119812 295.29405212 C-32.95065916 291.63110917 -35.39544911 287.72625484 -37.36328125 283.40234375 C-39.82870933 278.25203235 -42.70309322 273.53173995 -45.8125 268.75 C-46.81372549 267.16613861 -47.81369985 265.58148571 -48.8125 263.99609375 C-52.26079078 258.56762846 -55.7866279 253.19076378 -59.3125 247.8125 C-65.21112412 238.81264679 -70.95648387 229.72661045 -76.63793945 220.58837891 C-80.37280022 214.58632975 -84.15091917 208.61692859 -88 202.6875 C-88.65923462 201.665354 -88.65923462 201.665354 -89.33178711 200.62255859 C-91.27766159 197.6125515 -93.24582825 194.62819864 -95.30078125 191.69140625 C-95.96464844 190.72074219 -96.62851563 189.75007812 -97.3125 188.75 C-97.88613281 187.94046875 -98.45976563 187.1309375 -99.05078125 186.296875 C-100 184 -100 184 -99.26171875 181.74658203 C-97.85803584 178.69096424 -96.34174293 175.72639625 -94.76171875 172.7578125 C-94.28664383 171.86406921 -94.28664383 171.86406921 -93.80197144 170.95227051 C-92.76689987 169.00818311 -91.72748959 167.06646042 -90.6875 165.125 C-90.32896942 164.45362 -89.97043884 163.78223999 -89.6010437 163.09051514 C-84.54124723 153.6192863 -79.34691684 144.23788975 -74.01318359 134.91772461 C-68.88484657 125.9049752 -64.04248961 116.74687758 -59.19863892 107.57940674 C-54.74932575 99.15911387 -50.26661721 90.76484119 -45.60473633 82.4597168 C-42.17300331 76.34050832 -38.83292319 70.17350458 -35.5 64 C-31.32299231 56.26587677 -27.1068957 48.55700751 -22.81738281 40.88476562 C-18.6792364 33.46487174 -14.65275758 25.9847587 -10.640625 18.49609375 C-7.26293134 12.22202777 -3.72316602 6.07551488 0 0 Z " fill="#91707F" transform="translate(156,12)"/>
<path d="M0 0 C1.70884005 1.62339805 3.37446717 3.29319053 5 5 C5 5.66 5 6.32 5 7 C5.66 7 6.32 7 7 7 C8.59375 8.94921875 8.59375 8.94921875 10.5 11.6875 C13.60689672 16.06873185 16.77683371 20.37623961 20.0625 24.625 C20.48329834 25.17099854 20.90409668 25.71699707 21.33764648 26.27954102 C23.26196836 28.771622 25.19974129 31.25184772 27.15625 33.71875 C28.09984375 34.90984375 28.09984375 34.90984375 29.0625 36.125 C29.61035156 36.80820313 30.15820312 37.49140625 30.72265625 38.1953125 C32 40 32 40 33 43 C33.99 43.33 34.98 43.66 36 44 C36 44.66 36 45.32 36 46 C37.2065625 47.175625 37.2065625 47.175625 38.4375 48.375 C40.81810326 50.81366675 41.63635918 51.7272326 42 55 C42.61875 55.061875 43.2375 55.12375 43.875 55.1875 C46 56 46 56 47.125 58.5 C47.41375 59.325 47.7025 60.15 48 61 C48.66 61.33 49.32 61.66 50 62 C51.03565785 63.30582947 52.03126968 64.64377755 53 66 C53.474375 66.61875 53.94875 67.2375 54.4375 67.875 C55.68013321 69.56498116 56.8530233 71.30619192 58 73.0625 C59.81332984 75.9221452 59.81332984 75.9221452 61.75 77.75 C63 79 63 79 63 81 C63.99 81.33 64.98 81.66 66 82 C67.1875 85.0625 67.1875 85.0625 68 88 C68.66 88 69.32 88 70 88 C71.625 90 71.625 90 73 92 C73.99 90.02 73.99 90.02 75 88 C75.77605436 92.39764138 75.69814328 94.82875481 73.37841797 98.72045898 C72.65283691 99.71891846 71.92725586 100.71737793 71.1796875 101.74609375 C70.35153746 102.90360419 69.52452555 104.06192953 68.69848633 105.22094727 C68.25848297 105.83366486 67.81847961 106.44638245 67.36514282 107.07766724 C65.00099817 110.40674948 62.72452238 113.79475895 60.44140625 117.1796875 C59.4681388 118.61851654 58.49483105 120.05731831 57.52148438 121.49609375 C57.03381592 122.21780762 56.54614746 122.93952148 56.04370117 123.68310547 C54.56846024 125.86617998 53.09193072 128.04837854 51.61523438 130.23046875 C46.97849038 137.08621939 42.36018306 143.95314885 37.78125 150.84765625 C33.59150668 157.15120374 29.28941786 163.36965828 24.9375 169.5625 C20.58209269 175.78922464 16.25078407 182.01537707 12.1875 188.4375 C7.84318711 195.30167799 3.2437959 201.96929962 -1.37695312 208.6484375 C-4.55707273 213.25597541 -7.71655724 217.8775878 -10.875 222.5 C-11.82076904 223.87961914 -11.82076904 223.87961914 -12.78564453 225.28710938 C-13.39005371 226.17205078 -13.99446289 227.05699219 -14.6171875 227.96875 C-15.14940918 228.74669922 -15.68163086 229.52464844 -16.22998047 230.32617188 C-18.55566215 233.83939474 -20.76697853 237.42716565 -23 241 C-16.4 241 -9.8 241 -3 241 C-3 241.33 -3 241.66 -3 242 C-10.26096596 243.19691577 -17.85491266 244.18082987 -25 242 C-30.26040561 237.95392417 -32.8718637 231.51793445 -35.67431641 225.66357422 C-37.74939132 221.49431689 -40.27661676 217.64975808 -42.8125 213.75 C-43.81372549 212.16613861 -44.81369985 210.58148571 -45.8125 208.99609375 C-49.26079078 203.56762846 -52.7866279 198.19076378 -56.3125 192.8125 C-62.21112412 183.81264679 -67.95648387 174.72661045 -73.63793945 165.58837891 C-77.37280022 159.58632975 -81.15091917 153.61692859 -85 147.6875 C-85.65923462 146.665354 -85.65923462 146.665354 -86.33178711 145.62255859 C-88.27766159 142.6125515 -90.24582825 139.62819864 -92.30078125 136.69140625 C-92.96464844 135.72074219 -93.62851563 134.75007812 -94.3125 133.75 C-94.88613281 132.94046875 -95.45976563 132.1309375 -96.05078125 131.296875 C-97 129 -97 129 -96.20825195 126.64672852 C-95.07823932 124.17138664 -93.89246266 121.75887194 -92.6171875 119.35546875 C-92.17246094 118.51435547 -91.72773437 117.67324219 -91.26953125 116.80664062 C-90.57923828 115.51016602 -90.57923828 115.51016602 -89.875 114.1875 C-89.40707031 113.30384766 -88.93914062 112.42019531 -88.45703125 111.50976562 C-87.30692397 109.33864475 -86.15451854 107.1687774 -85 105 C-83.68 105.99 -82.36 106.98 -81 108 C-80.9175 107.21625 -80.835 106.4325 -80.75 105.625 C-80 103 -80 103 -77.9375 101.6875 C-77.298125 101.460625 -76.65875 101.23375 -76 101 C-76 100.34 -76 99.68 -76 99 C-75.01 98.01 -75.01 98.01 -74 97 C-73.20850126 95.74193358 -72.43992489 94.46931831 -71.6875 93.1875 C-69.48625812 89.60647094 -67.01594975 86.94414142 -64 84 C-59.20608836 79.04528513 -59.20608836 79.04528513 -57 73 C-56.03750623 71.96385052 -55.03066736 70.96836191 -54 70 C-49.72359757 65.26239493 -45.8543272 60.25330102 -42.0625 55.125 C-41.01473174 53.72104897 -39.96655667 52.31740145 -38.91796875 50.9140625 C-37.19014067 48.59729077 -35.46376202 46.27945915 -33.73828125 43.9609375 C-32.81595703 42.74277344 -32.81595703 42.74277344 -31.875 41.5 C-31.35679688 40.8090625 -30.83859375 40.118125 -30.3046875 39.40625 C-29.87414062 38.9421875 -29.44359375 38.478125 -29 38 C-28.34 38 -27.68 38 -27 38 C-26.95617187 37.319375 -26.91234375 36.63875 -26.8671875 35.9375 C-25.62604515 31.73327004 -23.04207034 29.19716374 -20.125 26 C-16.65757192 22.14547188 -13.58698837 18.51822202 -11 14 C-9.5024587 11.92052643 -7.98033251 9.85859583 -6.4375 7.8125 C-5.65246094 6.76707031 -4.86742187 5.72164063 -4.05859375 4.64453125 C-2 2 -2 2 0 0 Z " fill="#A57C8F" transform="translate(153,67)"/>
<path d="M0 0 C6.99294334 6.92060255 13.29986205 14.3152044 19.4921875 21.953125 C22.90610943 26.10088061 26.40997895 30.16857465 29.92675781 34.22924805 C30.88111008 35.33447916 31.82640842 36.44761904 32.76074219 37.56982422 C34.06660498 39.13481195 34.06660498 39.13481195 36.0390625 40.84765625 C37.71512826 44.60177103 35.38147676 48.30480541 34 52 C32.85000438 54.94610763 31.63643476 57.86167239 30.40234375 60.7734375 C30.05559601 61.59923813 29.70884827 62.42503876 29.35159302 63.27586365 C28.21665968 65.97689073 27.07713666 68.67595442 25.9375 71.375 C25.14152197 73.26638397 24.34587308 75.1579065 23.55053711 77.04956055 C22.31018457 79.99940633 21.06952876 82.94912142 19.82759094 85.89830017 C16.84264857 92.98768625 13.87417342 100.08380718 10.9140625 107.18359375 C10.09255927 109.15251902 9.2710265 111.12143196 8.44946289 113.09033203 C7.26286694 115.93415312 6.0767859 118.77818208 4.89254761 121.62298584 C3.79618534 124.25597976 2.6972027 126.88786578 1.59765625 129.51953125 C1.27652863 130.29268173 0.955401 131.06583221 0.62454224 131.8624115 C-1.10410927 135.99252383 -2.94436688 140.01821936 -5 144 C-26.3301491 144.98624398 -47.65156326 145.08916888 -69 145.0625 C-70.03511467 145.06121597 -70.03511467 145.06121597 -71.09114075 145.05990601 C-79.72745063 145.04840702 -88.36372834 145.02817676 -97 145 C-95.33503501 140.60466014 -93.08346549 137.00323984 -90.375 133.1875 C-84.72553063 125.11090831 -79.26238481 116.91770942 -73.83544922 108.69018555 C-69.9514098 102.82992733 -65.9257686 97.10811316 -61.76586914 91.44067383 C-59.65537904 88.52368648 -57.7206376 85.55302016 -55.8125 82.5 C-52.30541984 76.95777525 -48.65747106 71.52637767 -44.9375 66.125 C-39.84758171 58.73255366 -34.84164944 51.28830544 -29.875 43.8125 C-24.10643353 35.13505668 -18.27593684 26.50698467 -12.34277344 17.94140625 C-9.82424926 14.30007821 -7.31953592 10.64924229 -4.8125 7 C-3.88156319 5.64579705 -2.95057882 4.2916268 -2.01953125 2.9375 C-1.01986328 1.4834375 -1.01986328 1.4834375 0 0 Z " fill="#735362" transform="translate(227,163)"/>
<path d="M0 0 C0.33 0 0.66 0 1 0 C1.6992333 4.10225785 2.38237105 8.20703512 3.0625 12.3125 C3.36124023 14.06336914 3.36124023 14.06336914 3.66601562 15.84960938 C3.84970703 16.96787109 4.03339844 18.08613281 4.22265625 19.23828125 C4.39547119 20.26993408 4.56828613 21.30158691 4.74633789 22.36450195 C5 25 5 25 4 28 C1.36 24.7 -1.28 21.4 -4 18 C-3.01 16.35 -2.02 14.7 -1 13 C-0.42845561 9.65501601 -0.42845561 9.65501601 -0.3125 6.1875 C-0.21388672 4.44533203 -0.21388672 4.44533203 -0.11328125 2.66796875 C-0.05720703 1.34732422 -0.05720703 1.34732422 0 0 Z " fill="#B693A3" transform="translate(259,178)"/>
<path d="M0 0 C2.24606427 1.77444972 2.95081002 2.58352485 3.29296875 5.48046875 C3.25816406 6.37378906 3.22335938 7.26710938 3.1875 8.1875 C3.16042969 9.08855469 3.13335937 9.98960938 3.10546875 10.91796875 C3.07066406 11.60503906 3.03585938 12.29210937 3 13 C2.01 13 1.02 13 0 13 C-1.06671952 9.79984144 -0.94845472 8.11455706 -0.5625 4.8125 C-0.46066406 3.91144531 -0.35882813 3.01039062 -0.25390625 2.08203125 C-0.17011719 1.39496094 -0.08632812 0.70789062 0 0 Z " fill="#6B555F" transform="translate(237,54)"/>
<path d="M0 0 C0.99 0.33 1.98 0.66 3 1 C2.34 1 1.68 1 1 1 C1 4.3 1 7.6 1 11 C0.34 9.68 -0.32 8.36 -1 7 C-2.485 9.475 -2.485 9.475 -4 12 C-5 9 -5 9 -4.00390625 6.73828125 C-3.52824219 5.93777344 -3.05257812 5.13726562 -2.5625 4.3125 C-2.08941406 3.50425781 -1.61632812 2.69601563 -1.12890625 1.86328125 C-0.75636719 1.24839844 -0.38382813 0.63351562 0 0 Z " fill="#6E5A64" transform="translate(156,12)"/>
<path d="M0 0 C0.66 0.66 1.32 1.32 2 2 C1.625 4.125 1.625 4.125 1 6 C0.34 6 -0.32 6 -1 6 C-1.103125 6.639375 -1.20625 7.27875 -1.3125 7.9375 C-1.539375 8.618125 -1.76625 9.29875 -2 10 C-2.99 10.33 -3.98 10.66 -5 11 C-3.55049545 7.2089881 -1.84827434 3.6125362 0 0 Z " fill="#A88897" transform="translate(68,172)"/>
<path d="M0 0 C0.99 0.33 1.98 0.66 3 1 C1.35 3.64 -0.3 6.28 -2 9 C-3 6 -3 6 -1.5625 2.8125 C-1.046875 1.884375 -0.53125 0.95625 0 0 Z " fill="#76606A" transform="translate(148,26)"/>
</svg>
